<svg xmlns="http://www.w3.org/2000/svg" viewBox="0 0 95 95"><defs><style>.cls-1{fill:none;}</style></defs><g id="レイヤー_2" data-name="レイヤー 2"><g id="文字"><path d="M70.59,44.24c0-10.33-10.36-18.74-23.09-18.74S24.41,33.91,24.41,44.24c0,9.26,8.21,17,19.31,18.48.75.17,1.78.5,2,1.14A4.62,4.62,0,0,1,45.83,66s-.27,1.63-.33,2c-.1.58-.46,2.28,2,1.24s13.3-7.83,18.14-13.4h0C69,52.1,70.59,48.37,70.59,44.24ZM39.35,49.75a.45.45,0,0,1-.45.45H32.43a.43.43,0,0,1-.31-.12h0a.43.43,0,0,1-.12-.31h0V39.69a.45.45,0,0,1,.44-.45h1.62a.45.45,0,0,1,.45.45v8h4.4a.45.45,0,0,1,.45.45Zm3.91,0a.45.45,0,0,1-.45.45H41.19a.45.45,0,0,1-.45-.45V39.69a.45.45,0,0,1,.45-.45h1.62a.45.45,0,0,1,.45.45Zm11.15,0a.45.45,0,0,1-.45.45H52.08A.29.29,0,0,1,52,50l-4.62-6.23v6a.45.45,0,0,1-.45.45H45.28a.45.45,0,0,1-.45-.45V39.69a.45.45,0,0,1,.45-.45h1.83l0,0h0l0,0h0l0,0h0l0,0,4.61,6.23v-6a.45.45,0,0,1,.45-.45H54a.46.46,0,0,1,.45.45Zm8.94-8.44a.45.45,0,0,1-.45.45H58.5v1.7h4.4a.45.45,0,0,1,.45.45v1.62a.45.45,0,0,1-.45.45H58.5v1.7h4.4a.45.45,0,0,1,.45.45v1.62a.45.45,0,0,1-.45.45H56.43a.43.43,0,0,1-.31-.12h0a.44.44,0,0,1-.13-.31h0V39.69h0a.44.44,0,0,1,.13-.31h0a.44.44,0,0,1,.31-.13H62.9a.45.45,0,0,1,.45.45Z"/><rect class="cls-1" width="95" height="95"/></g></g></svg>