<svg xmlns="http://www.w3.org/2000/svg" viewBox="0 0 95 95"><defs><style>.cls-1{fill:none;}</style></defs><g id="レイヤー_2" data-name="レイヤー 2"><g id="文字"><g id="Logo"><path id="white_background" data-name="white background" d="M67.67,37.15c0,.45,0,.9,0,1.35,0,13.75-10.47,29.61-29.61,29.61h0a29.45,29.45,0,0,1-16-4.66c.82.09,1.64.14,2.47.15a20.91,20.91,0,0,0,12.93-4.47,10.42,10.42,0,0,1-9.72-7.22,10.47,10.47,0,0,0,4.69-.18,10.42,10.42,0,0,1-8.34-10.21v-.13a10.26,10.26,0,0,0,4.72,1.31,10.43,10.43,0,0,1-3.22-13.9A29.54,29.54,0,0,0,47.12,39.66a10.41,10.41,0,0,1,17.73-9.49,20.92,20.92,0,0,0,6.61-2.53,10.42,10.42,0,0,1-4.57,5.76,20.61,20.61,0,0,0,6-1.64A20.94,20.94,0,0,1,67.67,37.15Z"/></g><rect class="cls-1" width="95" height="95"/></g></g></svg>