<svg xmlns="http://www.w3.org/2000/svg" viewBox="0 0 95 95"><defs><style>.cls-1{fill:#231815;}.cls-2{fill:none;}</style></defs><g id="レイヤー_2" data-name="レイヤー 2"><g id="文字"><path class="cls-1" d="M60.38,56.52A4.67,4.67,0,0,1,59,53V40.9H55.64v-.81c2.74-1,4.3-3.47,5.87-7h.85v6.55h5.72a22,22,0,1,0-.66,17.19,6.1,6.1,0,0,1-3.36,1,5.11,5.11,0,0,1-3.68-1.36m-23.75-.2A2.2,2.2,0,0,1,35,57a2.26,2.26,0,0,1-1.63-.66,2.13,2.13,0,0,1-.69-1.58,2.07,2.07,0,0,1,.69-1.55A2.29,2.29,0,0,1,35,52.54a2.19,2.19,0,0,1,1.6.64,2.07,2.07,0,0,1,.67,1.56,2.16,2.16,0,0,1-.68,1.58m15.53-.15a5.51,5.51,0,0,1-3.88,1.51,8.47,8.47,0,0,1-3.06-.79,4.6,4.6,0,0,0-1.37-.43,1,1,0,0,0-.77.31,1.6,1.6,0,0,0-.36.91h-.84v-6h.84a6.8,6.8,0,0,0,2,3.82,5.45,5.45,0,0,0,3.59,1.3A3.1,3.1,0,0,0,50.51,56a2.65,2.65,0,0,0,.88-2,2.83,2.83,0,0,0-.81-2,11.3,11.3,0,0,0-3.51-2,11.62,11.62,0,0,1-4-2.34,3.84,3.84,0,0,1-1-2.63,4.3,4.3,0,0,1,1.57-3.33,5.48,5.48,0,0,1,3.75-1.39,6.21,6.21,0,0,1,2.19.45A4.16,4.16,0,0,0,51,41a1.11,1.11,0,0,0,1-.77h.84v4.15h-1a3.67,3.67,0,0,0-1.44-2.12,4.29,4.29,0,0,0-2.91-1.13,3.34,3.34,0,0,0-2.1.62,1.94,1.94,0,0,0-.79,1.63,2.47,2.47,0,0,0,.73,1.76A11.1,11.1,0,0,0,48.57,47a11.48,11.48,0,0,1,4.2,2.61,4.53,4.53,0,0,1,1,3,4.69,4.69,0,0,1-1.64,3.57"/><path class="cls-1" d="M62.36,40.9V52.58a3.73,3.73,0,0,0,.83,2.59,3,3,0,0,0,2.36.91,4.14,4.14,0,0,0,2.63-1,22.15,22.15,0,0,0,.33-14.2H62.36Z"/><rect class="cls-2" width="95" height="95"/></g></g></svg>