<svg xmlns="http://www.w3.org/2000/svg" viewBox="0 0 95 95"><defs><style>.cls-1{fill:none;}</style></defs><g id="レイヤー_2" data-name="レイヤー 2"><g id="文字"><path d="M47.5,29.46c5.87,0,6.57,0,8.89.13a12.2,12.2,0,0,1,4.08.76,7.33,7.33,0,0,1,4.18,4.18,12.2,12.2,0,0,1,.76,4.08c.1,2.32.13,3,.13,8.89s0,6.57-.13,8.89a12.2,12.2,0,0,1-.76,4.08,7.33,7.33,0,0,1-4.18,4.18,12.2,12.2,0,0,1-4.08.76c-2.32.1-3,.13-8.89.13s-6.57,0-8.89-.13a12.2,12.2,0,0,1-4.08-.76,7.33,7.33,0,0,1-4.18-4.18,12.2,12.2,0,0,1-.76-4.08c-.1-2.32-.13-3-.13-8.89s0-6.57.13-8.89a12.2,12.2,0,0,1,.76-4.08,7.33,7.33,0,0,1,4.18-4.18,12.2,12.2,0,0,1,4.08-.76c2.32-.1,3-.13,8.89-.13m0-4c-6,0-6.72,0-9.07.13a16.35,16.35,0,0,0-5.34,1,11.26,11.26,0,0,0-6.44,6.44,16.35,16.35,0,0,0-1,5.34c-.1,2.35-.13,3.1-.13,9.07s0,6.72.13,9.07a16.35,16.35,0,0,0,1,5.34,11.26,11.26,0,0,0,6.44,6.44,16.35,16.35,0,0,0,5.34,1c2.35.1,3.1.13,9.07.13s6.72,0,9.07-.13a16.35,16.35,0,0,0,5.34-1,11.26,11.26,0,0,0,6.44-6.44,16.35,16.35,0,0,0,1-5.34c.1-2.35.13-3.1.13-9.07s0-6.72-.13-9.07a16.35,16.35,0,0,0-1-5.34,11.26,11.26,0,0,0-6.44-6.44,16.35,16.35,0,0,0-5.34-1c-2.35-.1-3.1-.13-9.07-.13Z"/><path d="M47.5,36.2A11.3,11.3,0,1,0,58.8,47.5,11.3,11.3,0,0,0,47.5,36.2Zm0,18.63a7.33,7.33,0,1,1,7.33-7.33A7.33,7.33,0,0,1,47.5,54.83Z"/><circle cx="59.24" cy="35.76" r="2.64"/><rect class="cls-1" width="95" height="95"/></g></g></svg>