<svg xmlns="http://www.w3.org/2000/svg" viewBox="0 0 329.34 40.9"><defs><style>.cls-1{fill:#241714;}</style></defs><g id="レイヤー_2" data-name="レイヤー 2"><g id="文字"><path class="cls-1" d="M4.83,17.41h7.81c2.8,0,4.82-.61,6-1.82A5.24,5.24,0,0,0,20,11.75v-.69c0-5.5-1-6.39-7.31-6.39H4.83ZM25,40.17H20.2V26.5a4.67,4.67,0,0,0-1.16-3.43c-1.14-1.15-3.18-1.73-6.07-1.73H4.83V40.17H0V.4H16.17c5.54,0,8.6,3.78,8.6,10.64a11.41,11.41,0,0,1-3,8.3A11.24,11.24,0,0,1,25,27.66Z"/><path class="cls-1" d="M101.27,40.9c-11.08,0-13.4-5.75-13.4-10.57V10.58C87.87,5.75,90.19,0,101.27,0c14.51,0,13.61,11.13,13.61,11.13H110c0-.22.27-7.7-8.7-7.7-4.17,0-8.65,2.24-8.65,7.15V30.33c0,4.9,4.48,7.14,8.65,7.14s8.67-2.24,8.67-7.15c0,0,0-3.58,0-5.52h-8.21V20.55h13.15v9.87c0,3.92-1.76,10.48-13.58,10.48"/><path class="cls-1" d="M50.38,25.66h13c-1.35-3.74-4.7-13-6.48-17.95-1.87,5.17-5.48,15.17-6.48,18M73.27,40.13H68.55s-2.76-7.68-3.62-10.05H48.8L45.16,40.13H40.45L54.77.4H59L72.69,38.52Z"/><polygon class="cls-1" points="157.35 40.13 134.92 40.13 134.92 0.4 156.2 0.4 156.2 4.45 139.84 4.45 139.84 17.63 155.24 17.63 155.24 21.68 139.84 21.68 139.84 36.07 157.35 36.07 157.35 40.13"/><path class="cls-1" d="M182.19,17.41h6.21c2.8,0,4.82-.61,6-1.81a5.32,5.32,0,0,0,1.31-3.85v-.7c0-2.72-.42-4.4-1.31-5.29s-2.7-1.09-5.15-1.09h-7.06Zm0,18.5h6.21c2.41,0,5.09-.24,6.7-1.93a7.57,7.57,0,0,0,1.65-5.32c0-.3,0-.61,0-.93l0-.38c-.05-1.78-.16-6-8-6h-6.55Zm8.66,4.26H177.37V.41h15.31c6.22,0,7.85,7,7.85,10.63a11.58,11.58,0,0,1-2.89,8.19,10.67,10.67,0,0,1,3.91,8.48c0,8.25-3.09,11.86-10.65,12.45Z"/><polygon class="cls-1" points="243.89 40.16 221.56 40.16 221.56 0.45 226.76 0.45 226.76 36.04 243.89 36.04 243.89 40.16"/><path class="cls-1" d="M274.2,40.9c-11.08,0-13.4-5.75-13.4-10.57V.32h4.75v30c0,4.9,4.48,7.14,8.65,7.14s8.64-2.24,8.64-7.14V.32h4.76v30c0,4.82-2.33,10.57-13.4,10.57"/><polygon class="cls-1" points="306.97 0.4 306.97 40.13 329.34 40.13 329.34 36.07 311.84 36.07 311.84 21.68 327.23 21.68 327.23 17.63 311.84 17.63 311.84 4.45 328.19 4.45 328.19 0.4 306.97 0.4"/></g></g></svg>