<svg xmlns="http://www.w3.org/2000/svg" viewBox="0 0 696.536 343.548"><defs><style>.cls-1,.cls-2{fill:#f6ea02;fill-rule:evenodd;}.cls-2{stroke:#f6ea02;stroke-width:8px;}</style></defs><g id="レイヤー_2" data-name="レイヤー 2"><g id="レイヤー_1-2" data-name="レイヤー 1"><path class="cls-1" d="M403.981,24.989c-7.77,0-10.677,6.09-10.677,18.69,0,10.709,3.537,15.329,18.237,20.159,14.909,5.04,19.109,6.93,24.569,11.339,8.189,6.51,11.969,17.01,11.969,32.969,0,30.869-14.285,45.989-44.308,45.989-18.689,0-31.5-6.72-37.637-20.58-4.152-6.509-5.412-14.279-5.832-27.38h28.349c.42,17.1,4.41,22.97,14.853,22.97,10.766,0,14.966-5.459,14.966-19.739,0-6.09-1.26-10.079-3.78-12.521-3.149-3.438-3.359-3.438-18.479-8.478-23.939-7.56-33.389-19.949-33.389-43.468C362.822,15.33,376.472,0,402.931,0c17.639,0,29.4,6.3,36.329,19.319,3.359,6.51,4.619,14.07,5.039,26.669H415.95C414.69,29.4,412.171,24.989,403.981,24.989ZM274.708,1.89h31.078V126.416h46.2v25.409H274.708Zm-92.4,0h76.438V27.3H213.874v36.9h37.733V89.037H213.874v37.379h46.133v25.409h-77.7Zm-92.5,0h76.438V27.3H120.885v36.9H159.1V89.037H120.885v37.379H167.5v25.409h-77.7ZM31.322,64.678H67.651V90.087H31.322v61.738H.243V1.89H76.194V27.3H31.322Z"/><path class="cls-2" d="M687.934,138.984H488.1"/><path class="cls-1" d="M679.638,95.754v15.277H632.553V20.887h46.321V36.164h-27.01V58.005h22.683V73.282H651.864V95.754Zm-71.2,15.277L594.063,72.9l-3.181,5.3v32.826H572.048V20.887h18.834V50.809L608.57,20.887h20.361L605.262,57.879l23.924,53.152ZM544.461,20.887h18.834v90.144H544.461Zm-51.427,0h18.141V95.754h28v15.277H493.034Z"/><path class="cls-1" d="M696.536,341.187H658.7l-22.844-61.382h-6.23v61.382h-34.15V187.942H640.7c21,0,31.147,2.576,38.534,10.088,8.075,7.512,11.306,18.029,11.306,35.2,0,27.043-5.076,37.131-21.459,44ZM639.081,213.268H628.7v42.068h10.186c7.12,0,10.35-1.074,13.119-4.293s4.861-9.229,4.861-16.1C656.864,219.255,652.234,213.268,639.081,213.268ZM498.526,187.942h83.99v25.97h-49.84v37.131h42v25.97H532.676v38.2H583.9v25.97H498.526Zm-48.738,69.325L432.02,307.92H410.331l-17.767-50.653v83.92H360.029V187.942h32.065l29.082,78.34,29.535-78.34h31.611V341.187H449.788Zm-137.734,0L293.639,307.92h-21.69l-17.767-50.653v83.92H221.648V187.942h31.381l29.765,78.34,29.535-78.34h31.612V341.187H312.054ZM156.962,343.548c-21.921,0-34.842-5.366-42.918-18.029-4.846-7.3-6.461-15.668-6.461-34.34V187.942h34.15V291.179c0,21.677,2.769,26.828,14.536,26.828,12.922,0,15.691-4.507,15.691-26.828V187.942h34.15V291.179c0,20.686-1.846,28.974-8.076,36.916C189.5,339.041,177.5,343.548,156.962,343.548ZM83.3,262.848c9,6.653,13.153,17.385,13.153,33.7,0,31.551-16.152,47-48.687,47-20.536,0-34.611-6.868-42.226-21.034C1.846,315.861.461,307.92,0,293.969H31.15c.461,17.385,4.845,24.038,16.152,24.038,12,0,16.613-5.58,16.613-20.175,0-5.837-1.384-10.3-4.153-13.092-3.461-3.22-3.692-3.22-20.306-8.371-26.3-7.024-36.688-20.39-36.688-44.428,0-30.263,15-45.93,44.072-45.93,19.382,0,32.3,6.438,39.918,19.745,3.692,6.654,5.077,14.381,5.538,27.258H61.146c-1.384-16.955-4.153-21.463-13.152-21.463-8.538,0-12.691,6.225-12.691,19.894,0,10.46,4.846,14.876,21,19.813C72.683,256.409,77.3,258.34,83.3,262.848Z"/></g></g></svg>