<svg xmlns="http://www.w3.org/2000/svg" viewBox="0 0 117.57 1038.922"><defs><style>.cls-1{fill:#f6ea02;fill-rule:evenodd;}</style></defs><g id="レイヤー_2" data-name="レイヤー 2"><g id="レイヤー_1-2" data-name="レイヤー 1"><path class="cls-1" d="M21.667,258.518H1.76V199.643H115.989v23.678H21.667ZM96.631,156.075H68.954v29.117H49.6V156.075H21.667v35.516H1.76V132.4H115.989v58.234H96.631Zm0-66.69H68.954v28.5H49.6v-28.5H21.667v34.9H1.76v-59.2H115.989v58.235H96.631Zm0-65.708h-27.6V51.355H48.8V23.677H1.76V0H115.989V57.274H96.631ZM15.679,265.531c4.959-2.56,10.879-3.52,21.278-3.84v21.6c-12.959.32-17.919,3.36-17.919,11.2,0,8.319,4.16,11.519,15.219,11.519,4.459,0,7.5-.96,9.579-2.88,2.4-2.112,2.4-2.56,6.4-14.079,5.6-18.238,15.037-25.437,32.955-25.437,22.558,0,34.237,10.4,34.237,30.557,0,13.439-4.8,22.4-14.719,27.677-4.959,2.56-10.719,3.52-20.318,3.84v-21.6c12.639-.96,16-2.88,16-9.119,0-5.92-4.64-8.8-13.384-8.8-9.014,0-12.534,3.359-16.213,14.846-3.84,11.071-5.28,14.271-7.767,18.43-5.832,6.24-13.831,9.12-25.99,9.12C11.519,328.565,0,317.366,0,294.808,0,280.569,5.687,270.81,15.679,265.531Z"/><path class="cls-1" d="M102.851,615.651c-4.959,2.56-10.044,3.52-20.318,3.84v-21.6c12.639-.96,16-2.88,16-8.408,0-6.631-4.639-9.51-14.238-9.51-7.466,0-11.679,3.359-15.359,14.558-3.5,11.359-5.279,14.559-8.639,18.719-4.959,6.239-12.959,9.119-25.118,9.119C11.66,622.371.9,611.172.9,588.614c0-14.239,4.363-24,14.922-29.277,4.96-1.822,10.879-3.52,21.638-3.84v21.6c-12.58.32-18.278,3.36-18.278,11.2,0,8.319,4.16,11.519,15.039,11.519,4.639,0,7.679-.96,9.759-2.88,2.4-2.4,2.4-2.56,6.239-14.079,5.759-18.238,15.2-25.437,33.117-25.437,22.558,0,34.237,10.4,34.237,30.557C117.57,601.413,112.77,610.372,102.851,615.651ZM13.58,634.663c5.439-3.36,11.678-4.479,25.6-4.479h77.61v23.677H39.177c-16.158,0-20,2.694-20,10.079,0,8.96,3.36,10.879,20,10.879h77.61V698.5H39.177c-15.2,0-21.6-1.28-27.517-5.6C3.5,686.978.9,678.659.9,664.42.9,649.222,4.887,640.263,13.58,634.663ZM116.787,731.14,57.735,752.525l59.052,19.731v21.918H1.9V771.616H64.455L26.7,759.3V744.259L64.455,731.94H1.9V709.382H116.787Zm0,96.046L57.735,847.824,116.787,868.3V890.22H1.9V867.662H64.455L26.7,855.343V840.305l37.757-12.319H1.9V805.428H116.787Zm0,133.279H96.772V925.216H69.427v29.117H49.736V925.216H21.259v35.849H1.9V901.538H116.787Zm0,39.74c0,15.18-2.577,21.278-8.177,26.718-5.6,5.6-13.438,8.442-26.237,8.442-20.158,0-27.677-4.123-32.8-15.482L1.9,1038.922v-26.238l45.915-15.838v-4.32H1.9V968.848H116.787Zm-19.535-8.319H65.9v6.719c0,5.28.8,7.52,3.532,9.44,2.067,1.919,6.547,3.039,11.99,3.039,11.835,0,15.835-2.879,15.835-12Z"/><path class="cls-1" d="M1.3,369.225H9.282V526.132H1.3Z"/><path class="cls-1" d="M102.334,518.192v-21.6h-17.3v19.065h-12.1V496.59H55.787v23.075H43.029v-37.04h71.406v35.567Zm-59.3-39.009v-16.3l30.2-11.3-4.2-2.5h-26v-14.8h71.406v14.8h-23.7l23.7,13.9v16l-28.628-18.6Zm0-66.543h71.406v14.8H43.029Zm12.758-4.106H43.029V372.045h71.406v14.487H55.787Z"/></g></g></svg>